<svg width="130" height="130" viewBox="0 0 130 130" fill="none" xmlns="http://www.w3.org/2000/svg">
<path d="M9.31738 97.1487C12.0998 101.949 15.5235 106.42 19.5514 110.449C31.6921 122.588 47.8321 129.274 65 129.274C82.1689 129.274 98.309 122.588 110.449 110.449C114.478 106.42 117.9 101.949 120.683 97.1487C126.286 87.4816 129.274 76.4717 129.274 65C129.274 53.5282 126.286 42.5184 120.683 32.8512C117.9 28.0505 114.477 23.5793 110.449 19.5514C98.309 7.41174 82.1689 0.726013 65 0.726013C47.8321 0.726013 31.6911 7.41174 19.5514 19.5514C15.5225 23.5793 12.0988 28.0505 9.31738 32.8512C3.7144 42.5184 0.726074 53.5292 0.726074 65C0.726074 76.4708 3.7144 87.4816 9.31738 97.1487ZM48.5971 65C48.5971 62.0146 49.4023 59.2165 50.8018 56.802C53.6421 51.9022 58.94 48.5961 65 48.5961C71.0601 48.5961 76.358 51.9022 79.1992 56.802C80.5978 59.2156 81.404 62.0146 81.404 65C81.404 67.9854 80.5978 70.7834 79.1992 73.197C76.359 78.0978 71.0601 81.4029 65 81.4029C58.94 81.4029 53.6421 78.0978 50.8008 73.197C49.4023 70.7834 48.5971 67.9854 48.5971 65Z" fill="#FF8398"/>
<path d="M65.0001 105.338V129.274C82.1689 129.274 98.309 122.588 110.449 110.449C114.478 106.42 117.9 101.949 120.683 97.1487L99.939 85.1719C92.964 97.2272 79.9299 105.338 65.0001 105.338Z" fill="#54E360"/>
<path d="M105.339 65C105.339 72.3487 103.373 79.2384 99.939 85.1719L120.683 97.1487C126.286 87.4816 129.274 76.4717 129.274 65C129.274 53.5282 126.286 42.5184 120.683 32.8512L99.939 44.8271C103.373 50.7616 105.339 57.6513 105.339 65Z" fill="#008ADF"/>
<path d="M30.0611 85.1719L9.31738 97.1487C12.0998 101.949 15.5235 106.42 19.5514 110.449C31.6921 122.588 47.8321 129.274 65 129.274V105.338C50.0702 105.338 37.0361 97.2272 30.0611 85.1719Z" fill="#FFD400"/>
<path d="M99.939 44.8271L120.683 32.8512C117.9 28.0505 114.477 23.5793 110.449 19.5514C98.309 7.41174 82.1689 0.726013 65.0001 0.726013V24.661C79.9299 24.661 92.964 32.7728 99.939 44.8271Z" fill="#0065A3"/>
<path d="M9.31738 97.1487L30.0611 85.1719C26.6275 79.2384 24.6621 72.3487 24.6621 65C24.6621 57.6513 26.6275 50.7616 30.0611 44.8281L9.31738 32.8512C3.7144 42.5184 0.726074 53.5292 0.726074 65C0.726074 76.4708 3.7144 87.4816 9.31738 97.1487Z" fill="#FF9100"/>
<path d="M65 24.661V0.726013C47.8321 0.726013 31.6911 7.41174 19.5514 19.5514C15.5225 23.5793 12.0988 28.0505 9.31738 32.8512L30.0611 44.8281C37.0361 32.7728 50.0702 24.661 65 24.661Z" fill="#FF4949"/>
<path d="M81.4039 65C81.4039 67.9854 80.5978 70.7834 79.1992 73.197L99.939 85.1719C103.373 79.2384 105.339 72.3487 105.339 65C105.339 57.6503 103.373 50.7616 99.939 44.8271L79.1992 56.802C80.5978 59.2156 81.4039 62.0146 81.4039 65Z" fill="#0065A3"/>
<path d="M79.1993 56.802L99.939 44.8281C92.964 32.7728 79.9299 24.661 65.0001 24.661V48.5961C71.0601 48.5961 76.358 51.9022 79.1993 56.802Z" fill="#005183"/>
<path d="M65.0001 81.4029V105.338C79.9299 105.338 92.964 97.2272 99.939 85.1719L79.1993 73.198C76.359 78.0978 71.0601 81.4029 65.0001 81.4029Z" fill="#00AB5E"/>
<path d="M65.0001 105.338V81.4029C58.9401 81.4029 53.6421 78.0978 50.8009 73.197L30.0611 85.1719C37.0361 97.2272 50.0702 105.338 65.0001 105.338Z" fill="#FF9F04"/>
<path d="M48.5971 65C48.5971 62.0146 49.4023 59.2165 50.8019 56.802L30.0611 44.8281C26.6275 50.7616 24.6621 57.6513 24.6621 65C24.6621 72.3487 26.6275 79.2384 30.0611 85.1719L50.8009 73.197C49.4023 70.7834 48.5971 67.9854 48.5971 65Z" fill="#FF4B00"/>
<path d="M65.0001 48.5961V24.661C50.0702 24.661 37.0361 32.7728 30.0611 44.8281L50.8019 56.802C53.6421 51.9022 58.9401 48.5961 65.0001 48.5961Z" fill="#E80048"/>
</svg>
